# xmcd CD database file
#
# Track frame offsets:
#	150
#	14832
#	29342
#	44670
#	64411
#	78342
#	94733
#	108309
#	125437
#	145922
#	159071
#
# Disc length: 2381 seconds
#
# Revision: 1
# Processed by: cddbd v1.5.2PL0 Copyright (c) Steve Scherf et al.
# Submitted via: CDex 1.70beta2
#
DISCID=92094b0b
DTITLE=Randy Owen - One On One
DYEAR=2008
DGENRE=Country
TTITLE0=I Confess
TTITLE1=Holding Everything
TTITLE2=Like I Never Broke Her Heart
TTITLE3=Braid My Hair
TTITLE4=One On One
TTITLE5=Let's Pretend We're Strangers Fot The Night
TTITLE6=Slow And Steady
TTITLE7=Urban's On The Country Radio
TTITLE8=No One Can Love You Anymore
TTITLE9=Barbados
TTITLE10=Pray Me Back Home Again
EXTD=YEAR: 2008
EXTT0=
EXTT1=
EXTT2=
EXTT3=
EXTT4=
EXTT5=
EXTT6=
EXTT7=
EXTT8=
EXTT9=
EXTT10=
PLAYORDER=
